<svg width="36" height="36" viewBox="0 0 36 36" fill="none" xmlns="http://www.w3.org/2000/svg">
<g id="Fleet symbol" clip-path="url(#clip0_406_5061)">
<g id="Mask Group">
<path id="Polygon 3" d="M14.9032 1.19271C16.8195 0.0863382 19.1804 0.0863377 21.0967 1.19271L31.0071 6.91444C32.9233 8.02081 34.1038 10.0655 34.1038 12.2782V23.7217C34.1038 25.9344 32.9233 27.9791 31.0071 29.0855L21.0967 34.8072C19.1804 35.9136 16.8195 35.9136 14.9032 34.8072L4.99284 29.0855C3.07655 27.9791 1.89606 25.9344 1.89606 23.7217V12.2782C1.89606 10.0655 3.07655 8.02081 4.99284 6.91444L14.9032 1.19271Z" fill="url(#paint0_linear_406_5061)"/>
<mask id="mask0_406_5061" style="mask-type:alpha" maskUnits="userSpaceOnUse" x="1" y="0" width="34" height="36">
<path id="Polygon 4" d="M14.9032 1.19271C16.8195 0.0863382 19.1804 0.0863377 21.0967 1.19271L31.0071 6.91444C32.9233 8.02081 34.1038 10.0655 34.1038 12.2782V23.7217C34.1038 25.9344 32.9233 27.9791 31.0071 29.0855L21.0967 34.8072C19.1804 35.9136 16.8195 35.9136 14.9032 34.8072L4.99284 29.0855C3.07655 27.9791 1.89606 25.9344 1.89606 23.7217V12.2782C1.89606 10.0655 3.07655 8.02081 4.99284 6.91444L14.9032 1.19271Z" fill="#83E1E1"/>
</mask>
<g mask="url(#mask0_406_5061)">
<path id="Vector 5" d="M7.07109 14.0317L-3.55644 20.6566L-12.7635 26.8438C-13.1059 27.0739 -13.3113 27.4594 -13.3113 27.872V57.2179C-13.3113 57.902 -12.7567 58.4566 -12.0726 58.4566H49.2048C49.889 58.4566 50.4436 57.902 50.4436 57.2179V31.0059C50.4436 30.5815 50.2264 30.1867 49.8679 29.9596L18.8485 10.3006C18.3587 9.99022 17.719 10.0612 17.3091 10.4714L11.9656 15.819C11.4818 16.3032 10.6969 16.3032 10.2131 15.819L8.60262 14.2073C8.19516 13.7995 7.56028 13.7267 7.07109 14.0317Z" fill="url(#paint1_linear_406_5061)"/>
<path id="Vector 6" d="M7.45467 16.875L1.125 21.975H5.97115C6.44588 21.975 8.21291 24.575 9.03709 25.875L10.125 19.775L7.45467 16.875Z" fill="url(#paint2_linear_406_5061)"/>
<path id="Vector 7" d="M14.6468 19.125L18 13.5L31.5 21.375L28.408 22.7465L20.8125 22.5L13.5 29.25L16.875 21.375L14.6468 19.125Z" fill="url(#paint3_linear_406_5061)"/>
</g>
</g>
</g>
<defs>
<linearGradient id="paint0_linear_406_5061" x1="17.9999" y1="-0.595215" x2="17.9999" y2="36.5951" gradientUnits="userSpaceOnUse">
<stop stop-color="#22AFFF"/>
<stop offset="1" stop-color="#1D41FF"/>
</linearGradient>
<linearGradient id="paint1_linear_406_5061" x1="18.5661" y1="9.76953" x2="18.5661" y2="58.4566" gradientUnits="userSpaceOnUse">
<stop stop-color="#1B3573"/>
<stop offset="1" stop-color="#131E39"/>
</linearGradient>
<linearGradient id="paint2_linear_406_5061" x1="9.5625" y1="18" x2="-3.375" y2="37.125" gradientUnits="userSpaceOnUse">
<stop stop-color="#FCFCFD"/>
<stop offset="1" stop-color="white" stop-opacity="0"/>
</linearGradient>
<linearGradient id="paint3_linear_406_5061" x1="18.5625" y1="13.5" x2="30.375" y2="56.25" gradientUnits="userSpaceOnUse">
<stop stop-color="white"/>
<stop offset="1" stop-color="#192E5F"/>
</linearGradient>
<clipPath id="clip0_406_5061">
<rect width="36" height="36" fill="white"/>
</clipPath>
</defs>
</svg>
